<?xml version="1.0" encoding="UTF-8" standalone="no"?>
<!-- Created with Inkscape (http://www.inkscape.org/) -->

<svg
   xmlns:dc="http://purl.org/dc/elements/1.1/"
   xmlns:cc="http://creativecommons.org/ns#"
   xmlns:rdf="http://www.w3.org/1999/02/22-rdf-syntax-ns#"
   xmlns:svg="http://www.w3.org/2000/svg"
   xmlns="http://www.w3.org/2000/svg"
   xmlns:sodipodi="http://sodipodi.sourceforge.net/DTD/sodipodi-0.dtd"
   xmlns:inkscape="http://www.inkscape.org/namespaces/inkscape"
   width="438.33661"
   height="319.77777"
   id="svg2"
   version="1.1"
   inkscape:version="0.47 r22583"
   sodipodi:docname="krowa.svg">
  <defs
     id="defs4">
    <inkscape:perspective
       sodipodi:type="inkscape:persp3d"
       inkscape:vp_x="0 : 526.18109 : 1"
       inkscape:vp_y="0 : 1000 : 0"
       inkscape:vp_z="744.09448 : 526.18109 : 1"
       inkscape:persp3d-origin="372.04724 : 350.78739 : 1"
       id="perspective10" />
    <inkscape:perspective
       id="perspective3076"
       inkscape:persp3d-origin="0.5 : 0.33333333 : 1"
       inkscape:vp_z="1 : 0.5 : 1"
       inkscape:vp_y="0 : 1000 : 0"
       inkscape:vp_x="0 : 0.5 : 1"
       sodipodi:type="inkscape:persp3d" />
    <filter
       inkscape:collect="always"
       id="filter5121"
       x="-0.19366215"
       width="1.3873243"
       y="-0.13133448"
       height="1.262669"
       color-interpolation-filters="sRGB">
      <feGaussianBlur
         inkscape:collect="always"
         stdDeviation="0.38248253"
         id="feGaussianBlur5123" />
    </filter>
  </defs>
  <sodipodi:namedview
     id="base"
     pagecolor="#ffffff"
     bordercolor="#666666"
     borderopacity="1.0"
     inkscape:pageopacity="0.0"
     inkscape:pageshadow="2"
     inkscape:zoom="1.4142136"
     inkscape:cx="359.84669"
     inkscape:cy="158.93504"
     inkscape:document-units="px"
     inkscape:current-layer="layer1"
     showgrid="false"
     inkscape:window-width="1280"
     inkscape:window-height="752"
     inkscape:window-x="0"
     inkscape:window-y="0"
     inkscape:window-maximized="1"
     inkscape:snap-page="true"
     inkscape:snap-nodes="false"
     showguides="true"
     inkscape:guide-bbox="true" />
  <metadata
     id="metadata7">
    <rdf:RDF>
      <cc:Work
         rdf:about="">
        <dc:format>image/svg+xml</dc:format>
        <dc:type
           rdf:resource="http://purl.org/dc/dcmitype/StillImage" />
        <dc:title></dc:title>
      </cc:Work>
    </rdf:RDF>
  </metadata>
  <g
     inkscape:label="Layer 1"
     inkscape:groupmode="layer"
     id="layer1"
     transform="translate(-14.144884,37.996934)">
    <g
       inkscape:export-ydpi="90"
       inkscape:export-xdpi="90"
       inkscape:export-filename="/Users/grzegorz/Sites/img/krowa.png"
       id="g3168"
       transform="matrix(1.5926285,0,0,1.4882157,338.17463,-282.0303)">
      <g
         inkscape:export-ydpi="90"
         inkscape:export-xdpi="90"
         inkscape:export-filename="/Users/grzegorz/Documents/workspace/Male_Zoo/res/drawable/krowa.png"
         transform="matrix(1.148799,0,0,1.148799,-551.81693,96.44667)"
         id="g3264">
        <g
           id="g4149"
           transform="matrix(0,-1,-1,0,445.82633,447.84507)">
          <path
             id="path4110"
             d="m 348.2329,99.149577 c -0.93709,0.05236 -2.37323,0.50779 -4.15625,1.343743 -1.78302,0.83596 -3.91297,2.05425 -6.28125,3.5625 -2.36828,1.50825 -4.96339,3.30575 -7.65625,5.375 -2.69286,2.06925 -5.49323,4.41855 -8.25,6.9375 -1.74498,1.59445 -3.35176,3.25825 -5.1875,4.71875 -0.91787,0.73025 -1.89176,1.40779 -2.96875,2 -1.07699,0.59221 -2.2667,1.08428 -3.59375,1.46875 -0.54656,0.1235 -1.01694,0.12861 -1.53125,-0.0625 -0.51431,-0.19111 -1.0755,-0.56741 -1.78125,-1.15625 -1.33258,-1.11183 -3.59322,-2.55311 -5.90625,-3.84375 -2.31303,-1.29064 -4.68651,-2.45079 -6.21875,-2.9375 -1.80698,-0.57397 -3.61729,-0.87407 -5.125,-0.90625 -0.75386,-0.0161 -1.40737,0.0344 -1.96875,0.15625 -0.56138,0.12187 -1.02204,0.33225 -1.3125,0.59375 -0.34267,0.30848 -0.74722,0.50268 -1.3125,0.59375 -0.56528,0.0911 -1.28535,0.0666 -2.25,-0.0312 -2.06297,-0.20934 -3.48142,-0.1899 -4.375,0.125 -0.44679,0.15745 -0.76259,0.41201 -0.96875,0.71875 -0.20616,0.30674 -0.3125,0.68808 -0.3125,1.15625 0,0.74064 -0.006,1.13516 -0.3125,1.34375 -0.3063,0.20859 -0.91235,0.21875 -2,0.21875 -1.21613,0 -1.98577,0.11922 -2.46875,0.46875 -0.48298,0.34953 -0.66712,0.92626 -0.71875,1.84375 -0.027,0.4796 -0.11482,0.7717 -0.4375,0.90625 -0.32268,0.13455 -0.86558,0.10476 -1.8125,0.0312 -0.79418,-0.0617 -1.37257,-0.0433 -1.78125,0.0625 -0.40868,0.10583 -0.65317,0.32452 -0.78125,0.625 -0.12731,0.29869 -0.30322,0.49618 -0.5,0.625 -0.19678,0.12882 -0.42281,0.16581 -0.6875,0.125 -0.52938,-0.0816 -1.17704,-0.49129 -1.96875,-1.25 -0.75842,-0.7268 -1.62642,-1.17359 -2.34375,-1.28125 -0.35866,-0.0538 -0.66986,-0.0193 -0.9375,0.0937 -0.26764,0.11308 -0.47097,0.30569 -0.59375,0.59375 -0.21229,0.49804 0.0828,1.96308 0.625,3.5625 0.54217,1.59942 1.30962,3.34078 2.0625,4.4375 0.92962,1.35416 2.75465,3.0624 4.8125,4.65625 2.05785,1.59385 4.35908,3.08995 6.3125,3.96875 1.27561,0.57387 2.59856,1.05273 3.9375,1.4375 1.33894,0.38477 2.70262,0.64963 4.09375,0.84375 1.39113,0.19412 2.78657,0.31059 4.21875,0.3125 1.43218,0.002 2.88166,-0.0894 4.34375,-0.28125 1.65132,-0.21668 3.13918,-0.48982 4.5,-0.84375 1.36082,-0.35393 2.60351,-0.78893 3.8125,-1.34375 1.20899,-0.55482 2.36666,-1.24314 3.5625,-2.0625 1.19584,-0.81936 2.42864,-1.78997 3.75,-2.9375 1.83602,-1.59447 3.11148,-2.59668 4.28125,-3.3125 1.16977,-0.71582 2.24795,-1.1404 3.65625,-1.53125 2.14321,-0.59481 4.5055,-1.64937 6.90625,-3.03125 2.40075,-1.38188 4.8374,-3.09365 7.09375,-5.03125 5.05337,-4.19502 9.08526,-7.75252 12.25,-10.71875 3.16474,-2.96623 5.46321,-5.33877 7,-7.1875 1.53679,-1.84873 2.29924,-3.15747 2.46875,-3.99999 0.0848,-0.421273 0.0207,-0.715663 -0.1875,-0.906253 -0.20819,-0.19059 -0.53145,-0.27618 -1,-0.25 z"
             style="fill:#ffffff;fill-opacity:1;fill-rule:evenodd;stroke:none" />
          <path
             id="path4118"
             d="m 348.21869,99.163359 c -3.74837,0.20945 -15.28543,7.111721 -26.3125,17.187501 -3.48997,3.18889 -6.44178,6.68087 -11.75,8.21875 -1.09312,0.247 -1.901,-0.0411 -3.3125,-1.21875 -2.66517,-2.22367 -9.06051,-5.80784 -12.125,-6.78125 -3.61397,-1.14794 -7.24439,-1.23351 -8.40625,-0.1875 -0.30994,0.27902 -0.67243,0.45823 -1.15625,0.5625 0.35132,0.23832 0.71808,0.4452 1.0625,0.65625 1.84949,0.74905 4.56718,1.45403 6.96875,1.40625 1.3111,-0.0261 0.91401,-2.45723 2.09375,-1.65625 2.22446,3.47788 -2.76576,4.10844 -9.0625,0.25 -0.50645,-0.20511 -0.96835,-0.42665 -1.3125,-0.625 -0.55109,0.0819 -1.23809,0.0932 -2.15625,0 -4.12594,-0.41868 -5.65625,0.0961 -5.65625,1.96875 0,0.38884 -0.009,0.68333 -0.0625,0.90625 1.70503,0.84991 3.51568,1.59386 5.375,2.1875 4.55363,1.28 10.68495,2.33754 14.3125,1.125 1.85085,-0.61866 1.37621,-2.44122 3.125,-1.625 3.03315,3.24232 -7.59472,3.64262 -17.4375,0.5 -2.61304,-0.73451 -4.70075,-1.51912 -5.4375,-2 -0.21081,0.44796 -0.7645,0.5 -2.1875,0.5 -2.43226,0 -3.08424,0.47752 -3.1875,2.3125 -0.0221,0.3929 -0.0773,0.62958 -0.28125,0.78125 0.76035,0.52613 1.5141,1.01598 2.3125,1.46875 3.60588,1.60279 10.53141,3.72872 15.125,2.84375 1.91626,-0.36918 1.68662,-2.25847 3.3125,-1.21875 2.85731,4.00386 -8.83098,3.82286 -18.4375,-1.625 -1.36923,-0.60861 -2.33202,-1.1451 -2.40625,-1.40625 -0.31624,0.16288 -0.89377,0.17235 -1.90625,0.0937 -1.58837,-0.1233 -2.27509,0.0553 -2.53125,0.65625 -0.13281,0.31157 -0.32291,0.52951 -0.53125,0.65625 1.39608,1.16479 2.92234,2.24608 4.5,3.21875 4.08788,2.33036 9.64474,4.81282 13.40625,4.53125 1.94606,-0.14567 1.94241,-2.03282 3.4375,-0.8125 2.13129,3.86255 -8.10861,1.66673 -16.84375,-3.71875 -2.16102,-1.23192 -3.92997,-2.40974 -4.71875,-3.125 -0.58291,0.16018 -1.40692,-0.23113 -2.4375,-1.21875 -1.51683,-1.4536 -3.38388,-1.74599 -3.875,-0.59375 -0.42457,0.99608 1.213,5.80657 2.71875,8 1.85923,2.70833 7.21815,6.83614 11.125,8.59375 5.10245,2.29549 10.7454,3.07992 16.59375,2.3125 6.60527,-0.86673 10.33955,-2.56614 15.625,-7.15625 3.67203,-3.18895 5.08965,-4.06206 7.90625,-4.84375 4.28641,-1.18962 9.48729,-4.1873 14,-8.0625 20.21347,-16.7801 24.27962,-23.271951 20.53125,-23.062501 l 0,5e-5 z m -2.125,2.687501 c 0.10196,-0.009 0.15625,0.0202 0.15625,0.0937 0,1.53679 -16.64833,15.14938 -21.96875,19.65625 -4.35886,3.69235 -6.55872,4.89415 -11.59375,6.28125 -3.82566,1.05394 -16.39369,3.63461 -16.37108,2.59711 0.0158,-0.72242 12.0744,-2.91835 14.52733,-3.87836 5.49726,-2.15146 6.44821,-2.80328 15.40625,-10.53125 5.90057,-5.09033 18.3143,-14.08761 19.84375,-14.21875 l 0,5e-5 z"
             style="fill:#000000"
             sodipodi:nodetypes="cscsssccscccssccscccssccscccssccscccsssssssccccsssssscc" />
        </g>
        <g
           id="g4079"
           transform="translate(187.88871,-110.22074)">
          <path
             sodipodi:nodetypes="cccssssssssssssssscccsscccssssscccscccssssscccccccccsccssccssssccccccssccccccssscccccsssccccsccccscc"
             id="path4046"
             d="m 188.8806,181.79404 c -9.37251,1.65441 -17.08152,6.85153 -24.21875,12.84376 -20.33264,17.90598 -13.22987,45.23087 -13.09375,69.34374 -0.0714,8.45608 -0.62012,16.60985 -1.65625,24.4375 -0.63198,4.77441 -3.75892,18.18441 -6.21875,26.71875 -1.5968,5.5401 -2.90625,10.70525 -2.90625,11.5 0,4.50658 13.83766,17.46002 14.96875,7.0625 0.7667,-7.04789 1.50771,-3.23356 2.7075,0.0493 2.71959,7.44128 14.1522,-1.66336 14.01125,-3.89306 -0.0917,-1.45013 -3.24756,-8.07392 2.35598,-1.28125 2.68413,3.25374 7.96004,-1.46973 11.01902,-3.53125 1.76271,-1.18793 1.90925,-1.52967 1.90625,-4.3125 -0.003,-2.87429 -0.67046,-6.7977 -3.53125,-20.96875 -0.91748,-4.54481 -1.37081,-9.36187 -1.59375,-17.03125 -0.34616,-11.90876 -0.48436,-11.51455 3.625,-9.96875 1.08884,0.40958 3.42235,1.03925 5.21875,1.375 3.06721,0.57326 3.31091,0.73406 3.875,2.5625 1.51338,4.90558 0.0168,21.41596 -3.21875,35.46875 -1.89944,8.24975 -3.58892,13.74381 -7.6875,25.03125 l -3.21875,8.875 1.25,2.34375 c 2.81176,4.07072 12.43385,10.07065 13.59268,5.42208 2.51834,-10.10216 1.92793,-9.62158 3.47876,-0.54797 0.88826,5.19706 11.33882,-0.82056 15.14731,-3.28036 l 1.4375,-1.375 -0.6875,-7.28125 c -0.38147,-3.99204 -0.96483,-9.144 -1.28125,-11.46875 -0.59704,-4.38642 -2.66784,-26.4499 -3.28125,-35 -0.19312,-2.6915 -0.13655,-7.89115 0.0937,-11.53125 0.3651,-5.76957 0.54574,-6.68142 1.53125,-7.15625 1.72426,-0.83083 11.56122,-3.25102 11.9375,0.0312 0.50505,4.40546 0.74818,3.30303 2.09375,8.78125 l 1.25,13.9375 0.625,4.90625 c 0.74892,6.03024 -0.13905,16.29222 -2.1875,25.5 -0.77578,3.48713 -1.85182,8.65211 -2.40625,11.5 l -1,5.1875 1.34375,1.3125 c 1.98221,1.89958 12.19665,7.9082 12.84814,2.81837 1.54785,-12.09266 1.37276,-6.53475 2.57908,-0.17221 0.91393,4.82041 9.96477,-1.66162 11.97903,-3.61491 0.67118,-0.65087 1.38622,-2.25483 1.59375,-3.5625 0.61216,-3.8575 -0.7347,-19.27439 -2.34375,-26.6875 -0.81998,-3.77772 -1.65985,-7.72881 -1.84375,-8.78125 l -0.34375,-1.90625 -8.25,-36.125 c 11.56569,-6.29373 34.17479,-18.45724 32.59375,-36 -6.98599,-39.5735 -47.94472,-54.2669 -84.0937,-51.53119 z m 37.90625,6.75001 c 24.67792,10.2096 40.473,26.73376 41.6875,43.68749 -0.003,15.40267 -15.57955,28.65722 -30.40625,34.34375 -7.82931,1.83462 -12.16606,1.65753 -25.6875,6.375 -2.49871,0.32374 -3.33069,0.67334 -3.875,1.65625 -1.8728,3.38191 -1.54233,21.66891 0.75,40.375 0.58148,8.12719 1.82909,15.40156 0.37901,22 -5.54071,1.38372 -18.08362,1.06953 -20.03526,-0.6875 -0.85518,-0.76991 -0.80028,-1.21764 0.4375,-4.96875 0.74418,-2.25524 1.97525,-6.46906 2.75,-9.375 4.28916,-12.53125 5.01978,-25.0625 6.40625,-37.59375 -0.0372,-4.48842 -0.31909,-7.0152 -1.0625,-8.96875 -1.13283,-2.97689 -1.18128,-3.00805 -8.34375,-4.90625 -8.01839,-2.12505 -18.42781,-8.49969 -24.15625,-14.8125 -1.84912,-2.03776 -3.59009,-3.71875 -3.84375,-3.71875 -0.81812,0 -0.48162,1.08215 1.03125,3.40625 l 1.46875,2.28125 -0.5,12.34375 c -0.68025,16.45611 0.15538,34.0858 1.96875,41.3125 l 0.78125,3.0625 -1.875,1.03125 c -2.71051,1.484 -7.26648,2.2392 -11.96875,2 -6.17678,-0.31422 -6.14414,-0.27419 -4.15625,-8.09375 0.92321,-3.63153 2.27977,-9.75049 3,-13.59375 l 1.28125,-7 1.84375,-30.03125 c -0.22072,-6.46165 -0.6363,-17.08664 -0.9375,-23.625 -1.98896,-44.66061 36.3166,-59.82284 73.0625,-46.49999 z m -58.65625,74.49999 c 0.43112,0 1.06117,0.44082 1.375,0.96875 0.61158,1.02881 -0.41618,3.52679 -0.5625,21.1875 -0.3259,39.33563 -1.94,25.7626 -2.375,-2.875 -0.21425,-14.10483 0.34524,-19.28125 1.5625,-19.28125 z m 69.72859,7.29699 0.99016,3.64051 6.84375,35.28125 c 3.38008,16.68643 5.65317,17.2897 3.5625,22.40625 -0.14883,1.15481 -0.70769,1.54358 -3.40625,2.375 -4.55563,1.40356 -15.29243,1.8306 -16.375,0.65625 -0.65075,-0.70592 -0.52836,-2.45017 0.75,-10.78125 0.84058,-5.47808 1.53125,-11.09198 1.53125,-12.46875 0.80102,-8.51325 -2.23525,-29.56352 -4.3209,-38.12356 2.91104,-1.21702 7.0692,-3.12262 10.42449,-2.9857 z m -57.85359,41.60926 c 0,0 -7.47201,0.80181 -8.84375,0.4375 -1.25313,-0.3328 -1.22503,0.78242 -0.0937,-12.875 1.49999,-9.269 -0.99287,-25.88661 2.56245,-33.4375 0.0276,-0.0279 0.066,-0.026 0.125,-0.0312 l 0,-5e-5 c 0.88496,-0.078 5.05703,2.26005 5.34375,3.0625 0.1085,0.30364 0.0551,2.21584 -0.125,4.25 1.09171,12.85871 4.67377,37.70705 1.03125,38.59375 z"
             style="fill:#000000;stroke:#000000;stroke-opacity:1" />
          <path
             id="path4069"
             d="m 237.53142,270.7829 1,3.625 6.84375,35.2812 c 0.84502,4.1716 1.59424,7.3295 2.25,9.8125 0.65576,2.483 1.19778,4.2807 1.5625,5.7188 0.36472,1.438 0.55933,2.5257 0.53125,3.5625 -0.0281,1.0368 -0.25858,2.0333 -0.78125,3.3125 -0.0744,0.5774 -0.25436,0.967 -0.75,1.3125 -0.49564,0.3454 -1.30697,0.6467 -2.65625,1.0625 -1.13891,0.3508 -2.67962,0.6559 -4.34375,0.875 -1.66413,0.219 -3.46176,0.3385 -5.15625,0.4062 -1.69449,0.068 -3.27001,0.072 -4.5,-0.031 -1.22999,-0.1032 -2.10436,-0.3002 -2.375,-0.5938 -0.32538,-0.353 -0.48405,-0.9656 -0.375,-2.5312 0.10905,-1.5657 0.48582,-4.0845 1.125,-8.25 0.84058,-5.4781 1.53125,-11.092 1.53125,-12.4688 0.20025,-2.1283 0.1421,-5.0394 -0.0625,-8.3437 -0.2046,-3.3044 -0.57143,-6.9892 -1.03125,-10.6875 -0.91965,-7.3968 -2.20717,-14.8138 -3.25,-19.0938 1.45552,-0.6085 3.23967,-1.3886 5.0625,-2 0.91142,-0.3057 1.84285,-0.5716 2.75,-0.75 0.90715,-0.1784 1.78618,-0.253 2.625,-0.2187 z"
             style="fill:#ffffff;fill-opacity:1;fill-rule:evenodd;stroke:none" />
          <path
             id="path4073"
             d="m 246.30623,320.48841 c -0.0382,-0.26425 -0.0966,-0.54298 -0.17036,-0.82321 -2.36001,-8.96754 -1.34341,-2.60097 -1.9327,-8.70198 -16.69367,-8.88362 -10.92099,8.46699 -10.80954,13.39953 -1.20031,4.85727 14.10071,4.31726 12.9126,-3.87434 z"
             style="fill:#000000;stroke:#000000;stroke-width:0.41851524;stroke-opacity:1"
             sodipodi:nodetypes="csccc" />
          <path
             id="path4067"
             d="m 173.49001,266.20204 c -0.059,0.01 -0.0974,0 -0.125,0.031 -0.44442,0.9439 -0.81873,2.0236 -1.09375,3.2188 -0.27502,1.1951 -0.48015,2.4927 -0.625,3.875 -0.2897,2.7645 -0.3394,5.8403 -0.34375,8.9687 -0.004,3.1284 0.064,6.3332 0.0312,9.3125 -0.0328,2.9793 -0.15625,5.7453 -0.53125,8.0625 -0.56566,6.8287 -0.8832,9.9675 -0.875,11.4375 0.004,0.735 0.0941,1.0631 0.25,1.2188 0.15591,0.1556 0.40547,0.1355 0.71875,0.2187 0.68587,0.1822 2.86678,0.061 4.90625,-0.094 2.03947,-0.1549 3.9375,-0.3437 3.9375,-0.3437 0.45532,-0.1109 0.78273,-0.5856 1.03125,-1.375 0.24852,-0.7895 0.38907,-1.8912 0.46875,-3.2188 0.15935,-2.6551 0.0383,-6.2536 -0.25,-10.2187 -0.57666,-7.9303 -1.73539,-17.3519 -2.28125,-23.7813 0.1801,-2.0342 0.2335,-3.9464 0.125,-4.25 -0.14336,-0.4012 -1.27927,-1.1999 -2.46875,-1.875 -1.18948,-0.6751 -2.43252,-1.2265 -2.875,-1.1875 z"
             style="fill:#ffffff;fill-opacity:1;fill-rule:evenodd;stroke:none" />
          <path
             id="path4059"
             d="m 199.63922,183.91915 c -2.18187,0.0614 -4.33541,0.21379 -6.4375,0.5 -2.10209,0.28621 -4.15438,0.70728 -6.15625,1.21875 -2.00187,0.51147 -3.93128,1.13778 -5.8125,1.875 -1.88122,0.73722 -3.69737,1.56778 -5.4375,2.53125 -1.74013,0.96347 -3.4214,2.05978 -5,3.25 -1.5786,1.19022 -3.07211,2.48879 -4.46875,3.90625 -1.39664,1.41746 -2.68076,2.94856 -3.875,4.59375 -1.19424,1.64519 -2.2786,3.40783 -3.25,5.28125 -0.9714,1.87342 -1.83437,3.83535 -2.5625,5.9375 -0.72813,2.10215 -1.34808,4.32488 -1.8125,6.65625 -0.46442,2.33137 -0.78848,4.78267 -0.96875,7.34375 -0.18027,2.56108 -0.18681,5.23996 -0.0625,8.03125 0.3012,6.53836 0.71678,17.16335 0.9375,23.625 l -1.84375,30.03125 -1.28125,7 c -0.72023,3.84326 -2.07679,9.96222 -3,13.59375 -0.49697,1.95489 -0.87641,3.43047 -1.0625,4.53125 -0.18609,1.10078 -0.19523,1.84039 0.0625,2.34375 0.25773,0.50336 0.75926,0.74364 1.59375,0.90625 0.83449,0.16261 2.0183,0.23394 3.5625,0.3125 2.35113,0.1196 4.65316,6.5e-4 6.71875,-0.34375 2.06559,-0.3444 3.89475,-0.91425 5.25,-1.65625 l 1.875,-1.03125 -0.78125,-3.0625 c -0.45334,-1.80668 -0.86478,-4.26134 -1.1875,-7.1875 -0.32272,-2.92616 -0.57473,-6.31611 -0.75,-10 -0.17527,-3.68389 -0.27024,-7.67016 -0.28125,-11.75 -0.011,-4.07984 0.0799,-8.26097 0.25,-12.375 l 0.5,-12.34375 -1.46875,-2.28125 c -0.75644,-1.16205 -1.23528,-2.00145 -1.40625,-2.5625 -0.0855,-0.28053 -0.0911,-0.48723 -0.0312,-0.625 0.0599,-0.13777 0.20172,-0.21875 0.40625,-0.21875 0.25366,0 1.99463,1.68099 3.84375,3.71875 1.43211,1.5782 3.15577,3.16893 5.0625,4.6875 1.90673,1.51857 3.9959,2.95705 6.15625,4.28125 2.16035,1.3242 4.36952,2.53615 6.5625,3.53125 2.19298,0.9951 4.3704,1.78124 6.375,2.3125 3.58124,0.9491 5.35722,1.44532 6.40625,2.0625 0.52451,0.30859 0.88049,0.64254 1.15625,1.09375 0.27576,0.45121 0.49804,1.00578 0.78125,1.75 0.37171,0.97677 0.6132,2.09431 0.78125,3.53125 0.16805,1.43694 0.26265,3.19329 0.28125,5.4375 -0.69324,6.26563 -1.23289,12.51563 -2.125,18.78125 -0.44605,3.13281 -0.99418,6.27344 -1.6875,9.40625 -0.69332,3.13281 -1.52146,6.27344 -2.59375,9.40625 -0.77475,2.90594 -2.00582,7.11976 -2.75,9.375 -0.61889,1.87555 -0.9697,2.91669 -1.03125,3.59375 -0.0615,0.67706 0.16616,0.99005 0.59375,1.375 0.48791,0.43926 1.61933,0.77633 3.15625,1.03125 1.53692,0.25492 3.46386,0.43739 5.5,0.5 2.03614,0.0626 4.1707,0.0127 6.15625,-0.125 1.98555,-0.13768 3.83357,-0.37282 5.21875,-0.71875 0.36252,-1.64961 0.54713,-3.35688 0.625,-5.09375 0.0779,-1.73687 0.0392,-3.5141 -0.0625,-5.34375 -0.20333,-3.6593 -0.64676,-7.4989 -0.9375,-11.5625 -0.57308,-4.67652 -1.05092,-9.32096 -1.375,-13.71875 -0.32408,-4.39779 -0.49497,-8.55237 -0.5625,-12.21875 -0.0675,-3.66638 -0.009,-6.86148 0.1875,-9.34375 0.19656,-2.48227 0.5318,-4.24827 1,-5.09375 0.27215,-0.49145 0.59913,-0.81177 1.1875,-1.0625 0.58837,-0.25073 1.43815,-0.43188 2.6875,-0.59375 3.38036,-1.17937 6.16339,-2.04329 8.59375,-2.71875 2.43036,-0.67546 4.49848,-1.17513 6.375,-1.5625 3.75303,-0.77474 6.8041,-1.17644 10.71875,-2.09375 1.85334,-0.71082 3.71761,-1.53202 5.5625,-2.46875 1.84489,-0.93673 3.66482,-1.98353 5.4375,-3.125 1.77268,-1.14147 3.4883,-2.3937 5.125,-3.71875 1.6367,-1.32505 3.18804,-2.7313 4.625,-4.21875 1.43696,-1.48745 2.76404,-3.05882 3.9375,-4.6875 1.17346,-1.62868 2.18505,-3.31377 3.03125,-5.0625 0.8462,-1.74873 1.51358,-3.55863 1.96875,-5.40625 0.45517,-1.84762 0.71837,-3.73092 0.71875,-5.65625 -0.15181,-2.11922 -0.55992,-4.2182 -1.15625,-6.3125 -0.59633,-2.0943 -1.38766,-4.17236 -2.40625,-6.21875 -1.01859,-2.04639 -2.23766,-4.087 -3.65625,-6.0625 -1.41859,-1.9755 -3.04742,-3.89964 -4.84375,-5.78125 -1.79633,-1.88161 -3.78568,-3.70401 -5.9375,-5.46875 -2.15182,-1.76474 -4.45245,-3.46887 -6.9375,-5.09375 -2.48505,-1.62488 -5.14148,-3.16296 -7.9375,-4.625 -2.79602,-1.46204 -5.72776,-2.8488 -8.8125,-4.125 -2.29662,-0.83268 -4.60766,-1.54636 -6.90625,-2.15625 -2.29859,-0.60989 -4.59488,-1.11339 -6.875,-1.5 -2.28012,-0.38661 -4.54004,-0.64967 -6.78125,-0.8125 -2.24121,-0.16283 -4.47438,-0.21769 -6.65625,-0.15625 z"
             style="fill:#ffffff;fill-opacity:1;fill-rule:evenodd;stroke:none" />
          <path
             sodipodi:nodetypes="csssccccssssccsccsccssssssc"
             style="fill:#000000;stroke:#000000;stroke-opacity:1"
             d="m 159.2951,208.92843 c -1.27014,3.39339 -1.43671,4.6229 -1.1875,8.46875 0.37745,5.82479 2.1762,9.52288 6.71875,13.81249 6.795,6.41662 11.44973,6.87564 16.71875,1.625 2.99152,-2.9811 3.6865,-5.26656 3.6875,-11.99999 -0.19988,-7.76525 -1.81977,-16.06039 -9.1875,-20.125 -12.22874,-3.90693 -14.23561,0.47677 -16.75,8.21875 z m 71.9375,-13.96875 c -0.71486,0.0353 -1.47695,0.11067 -2.25,0.21875 -24.73744,3.45842 -7.47197,2.40834 -23.84375,2.59375 -16.37178,0.1854 -1.54571,32.73506 5,34.03124 6.54571,1.29617 12.82228,-12.1479 25.5,-8.625 12.28155,3.41282 17.75445,-29.31415 -4.40625,-28.21874 z m -1.03125,34.99999 c -4.99738,-0.15478 -10.73859,2.1592 -16.875,8.28125 -1.84387,1.83956 -3.49212,3.47869 -4.96875,4.96875 -11.99904,10.65474 7.75293,31.87065 23.25,19.59375 1.85971,-0.3992 3.97175,-0.6369 6.40625,-0.625 18.25872,0.0895 10.0353,-31.66596 -7.8125,-32.21875 z m -44.3125,11.53125 c -2.10259,0.0504 -4.25968,0.9011 -6.15625,2.46875 -1.62833,1.34591 -4.1875,6.19703 -4.1875,7.9375 0,2.0703 2.35477,4.56792 5.59375,5.9375 0.96833,0.40945 3.00928,0.7386 4.53125,0.75 5.37409,0.0402 8.6772,-4.51927 7.8125,-10.75 -0.48276,-3.47865 -2.09682,-5.29999 -5.5,-6.125 -0.67786,-0.16433 -1.39289,-0.23555 -2.09375,-0.21875 z"
             id="path4019" />
          <path
             id="path4077"
             d="m 159.72844,274.77289 c -1.3645,0.0366 -2.76438,0.65441 -3.99518,1.79291 -1.05673,0.97746 -2.71753,4.50056 -2.71753,5.76456 0,1.50355 1.52816,3.31743 3.63013,4.31208 0.62842,0.29736 1.95292,0.5364 2.94062,0.54468 3.48758,0.0292 5.63118,-3.28209 5.07002,-7.80712 -0.31329,-2.52635 -1.36076,-3.84909 -3.5693,-4.44825 -0.4399,-0.11934 -0.90393,-0.17107 -1.35876,-0.15886 z"
             style="fill:#000000;stroke:#000000;stroke-width:0.686517;stroke-opacity:1"
             sodipodi:nodetypes="cssssssc" />
        </g>
        <g
           transform="translate(25.227159,-58.205207)"
           id="g5000">
          <g
             transform="matrix(0.45590114,-0.23863686,0.27227113,0.45152134,192.38357,263.53796)"
             id="g5002">
            <g
               id="g5004">
              <rect
                 ry="1.3"
                 y="190.92407"
                 x="428.61801"
                 height="6.0291533"
                 width="4.7502418"
                 id="rect5006"
                 style="fill:#e6e6e6;fill-opacity:1;fill-rule:evenodd;stroke:#000000;stroke-opacity:1" />
              <rect
                 style="fill:#e6e6e6;fill-opacity:1;fill-rule:evenodd;stroke:#000000;stroke-opacity:1"
                 id="rect5008"
                 width="4.7502418"
                 height="6.0291533"
                 x="428.61801"
                 y="196.95323"
                 ry="1.3" />
            </g>
          </g>
          <g
             transform="matrix(0.5139118,-0.02623087,0.05861675,0.52399157,206.87993,159.27673)"
             id="g5010">
            <g
               id="g5012">
              <rect
                 ry="1.3"
                 y="190.92407"
                 x="428.61801"
                 height="6.0291533"
                 width="4.7502418"
                 id="rect5014"
                 style="fill:#e6e6e6;fill-opacity:1;fill-rule:evenodd;stroke:#000000;stroke-opacity:1" />
              <rect
                 style="fill:#e6e6e6;fill-opacity:1;fill-rule:evenodd;stroke:#000000;stroke-opacity:1"
                 id="rect5016"
                 width="4.7502418"
                 height="6.0291533"
                 x="428.61801"
                 y="196.95323"
                 ry="1.3" />
            </g>
          </g>
          <g
             id="g5018"
             transform="matrix(0.51379903,0.02835406,0.00278189,0.52725265,214.77991,135.87752)">
            <g
               id="g5020">
              <rect
                 style="fill:#e6e6e6;fill-opacity:1;fill-rule:evenodd;stroke:#000000;stroke-opacity:1"
                 id="rect5022"
                 width="4.7502418"
                 height="6.0291533"
                 x="428.61801"
                 y="190.92407"
                 ry="1.3" />
              <rect
                 ry="1.3"
                 y="196.95323"
                 x="428.61801"
                 height="6.0291533"
                 width="4.7502418"
                 id="rect5024"
                 style="fill:#e6e6e6;fill-opacity:1;fill-rule:evenodd;stroke:#000000;stroke-opacity:1" />
            </g>
          </g>
          <g
             inkscape:transform-center-x="-1.0848268"
             id="g5026"
             transform="matrix(0.50864934,0.07790533,-0.04821627,0.52505075,221.11203,115.35341)"
             inkscape:transform-center-y="-0.9179374">
            <g
               id="g5028">
              <rect
                 style="fill:#e6e6e6;fill-opacity:1;fill-rule:evenodd;stroke:#000000;stroke-opacity:1"
                 id="rect5030"
                 width="4.7502418"
                 height="6.0291533"
                 x="428.61801"
                 y="190.92407"
                 ry="1.3" />
              <rect
                 ry="1.3"
                 y="196.95323"
                 x="428.61801"
                 height="6.0291533"
                 width="4.7502418"
                 id="rect5032"
                 style="fill:#e6e6e6;fill-opacity:1;fill-rule:evenodd;stroke:#000000;stroke-opacity:1" />
            </g>
          </g>
          <g
             id="g5034"
             transform="matrix(0.50156137,0.11501993,-0.08661444,0.52009714,228.73787,100.08858)">
            <g
               id="g5036">
              <rect
                 style="fill:#e6e6e6;fill-opacity:1;fill-rule:evenodd;stroke:#000000;stroke-opacity:1"
                 id="rect5038"
                 width="4.7502418"
                 height="6.0291533"
                 x="428.61801"
                 y="190.92407"
                 ry="1.3" />
              <rect
                 ry="1.3"
                 y="196.95323"
                 x="428.61801"
                 height="6.0291533"
                 width="4.7502418"
                 id="rect5040"
                 style="fill:#e6e6e6;fill-opacity:1;fill-rule:evenodd;stroke:#000000;stroke-opacity:1" />
            </g>
          </g>
          <g
             transform="matrix(0.51385247,0.02736865,0.00379302,0.52724634,211.66605,136.71138)"
             id="g5042">
            <g
               id="g5044">
              <rect
                 ry="1.3"
                 y="190.92407"
                 x="428.61801"
                 height="6.0291533"
                 width="4.7502418"
                 id="rect5046"
                 style="fill:#e6e6e6;fill-opacity:1;fill-rule:evenodd;stroke:#000000;stroke-opacity:1" />
              <rect
                 style="fill:#e6e6e6;fill-opacity:1;fill-rule:evenodd;stroke:#000000;stroke-opacity:1"
                 id="rect5048"
                 width="4.7502418"
                 height="6.0291533"
                 x="428.61801"
                 y="196.95323"
                 ry="1.3" />
            </g>
          </g>
          <g
             inkscape:transform-center-y="-1.1099769"
             transform="matrix(0.49336768,0.14622495,-0.11903686,0.51364708,235.659,87.694963)"
             id="g5050"
             inkscape:transform-center-x="0.88737336">
            <g
               id="g5052">
              <rect
                 ry="1.3"
                 y="190.92407"
                 x="428.61801"
                 height="6.0291533"
                 width="4.7502418"
                 id="rect5054"
                 style="fill:#e6e6e6;fill-opacity:1;fill-rule:evenodd;stroke:#000000;stroke-opacity:1" />
              <rect
                 style="fill:#e6e6e6;fill-opacity:1;fill-rule:evenodd;stroke:#000000;stroke-opacity:1"
                 id="rect5056"
                 width="4.7502418"
                 height="6.0291533"
                 x="428.61801"
                 y="196.95323"
                 ry="1.3" />
            </g>
          </g>
          <g
             id="g5058"
             transform="matrix(0.46913193,0.21144415,-0.1872403,0.49289367,256.79329,63.077929)">
            <g
               id="g5060">
              <rect
                 style="fill:#e6e6e6;fill-opacity:1;fill-rule:evenodd;stroke:#000000;stroke-opacity:1"
                 id="rect5062"
                 width="4.7502418"
                 height="6.0291533"
                 x="428.61801"
                 y="190.92407"
                 ry="1.3" />
              <rect
                 ry="1.3"
                 y="196.95323"
                 x="428.61801"
                 height="6.0291533"
                 width="4.7502418"
                 id="rect5064"
                 style="fill:#e6e6e6;fill-opacity:1;fill-rule:evenodd;stroke:#000000;stroke-opacity:1" />
            </g>
          </g>
          <g
             transform="matrix(0.43645422,0.27258231,-0.25179195,0.46325361,280.74865,41.639016)"
             id="g5066">
            <g
               id="g5068">
              <rect
                 ry="1.3"
                 y="190.92407"
                 x="428.61801"
                 height="6.0291533"
                 width="4.7502418"
                 id="rect5070"
                 style="fill:#e6e6e6;fill-opacity:1;fill-rule:evenodd;stroke:#000000;stroke-opacity:1" />
              <rect
                 style="fill:#e6e6e6;fill-opacity:1;fill-rule:evenodd;stroke:#000000;stroke-opacity:1"
                 id="rect5072"
                 width="4.7502418"
                 height="6.0291533"
                 x="428.61801"
                 y="196.95323"
                 ry="1.3" />
            </g>
          </g>
          <g
             transform="matrix(0.33797132,0.38803194,-0.37596226,0.36966942,342.39092,7.8673074)"
             id="g5074"
             inkscape:transform-center-x="-1.4210851">
            <g
               id="g5076">
              <rect
                 ry="1.3"
                 y="190.92407"
                 x="428.61801"
                 height="6.0291533"
                 width="4.7502418"
                 id="rect5078"
                 style="fill:#e6e6e6;fill-opacity:1;fill-rule:evenodd;stroke:#000000;stroke-opacity:1" />
              <rect
                 style="fill:#e6e6e6;fill-opacity:1;fill-rule:evenodd;stroke:#000000;stroke-opacity:1"
                 id="rect5080"
                 width="4.7502418"
                 height="6.0291533"
                 x="428.61801"
                 y="196.95323"
                 ry="1.3" />
            </g>
          </g>
          <g
             transform="matrix(0.3237478,0.39997595,-0.38905806,0.35586082,348.9145,3.7283567)"
             id="g5082">
            <g
               id="g5084">
              <rect
                 ry="1.3"
                 y="190.92407"
                 x="428.61801"
                 height="6.0291533"
                 width="4.7502418"
                 id="rect5086"
                 style="fill:#e6e6e6;fill-opacity:1;fill-rule:evenodd;stroke:#000000;stroke-opacity:1" />
              <rect
                 style="fill:#e6e6e6;fill-opacity:1;fill-rule:evenodd;stroke:#000000;stroke-opacity:1"
                 id="rect5088"
                 width="4.7502418"
                 height="6.0291533"
                 x="428.61801"
                 y="196.95323"
                 ry="1.3" />
            </g>
          </g>
          <g
             id="g5090"
             transform="matrix(0.38353353,0.34306768,-0.32715582,0.41348781,315.72512,20.021832)">
            <g
               id="g5092">
              <rect
                 style="fill:#e6e6e6;fill-opacity:1;fill-rule:evenodd;stroke:#000000;stroke-opacity:1"
                 id="rect5094"
                 width="4.7502418"
                 height="6.0291533"
                 x="428.61801"
                 y="190.92407"
                 ry="1.3" />
              <rect
                 ry="1.3"
                 y="196.95323"
                 x="428.61801"
                 height="6.0291533"
                 width="4.7502418"
                 id="rect5096"
                 style="fill:#e6e6e6;fill-opacity:1;fill-rule:evenodd;stroke:#000000;stroke-opacity:1" />
            </g>
          </g>
          <g
             id="g5098"
             transform="matrix(0.29405077,0.42228846,-0.41371559,0.32686773,364.89443,-2.5438366)"
             inkscape:transform-center-y="-1.4210851">
            <g
               id="g5100">
              <rect
                 style="fill:#e6e6e6;fill-opacity:1;fill-rule:evenodd;stroke:#000000;stroke-opacity:1"
                 id="rect5102"
                 width="4.7502418"
                 height="6.0291533"
                 x="428.61801"
                 y="190.92407"
                 ry="1.3" />
              <rect
                 ry="1.3"
                 y="196.95323"
                 x="428.61801"
                 height="6.0291533"
                 width="4.7502418"
                 id="rect5104"
                 style="fill:#e6e6e6;fill-opacity:1;fill-rule:evenodd;stroke:#000000;stroke-opacity:1" />
            </g>
          </g>
        </g>
        <g
           transform="matrix(0.99942721,-0.03384157,0.03384157,0.99942721,24.326719,39.971733)"
           id="g5106">
          <path
             style="fill:#ffffff;fill-opacity:1;fill-rule:evenodd;stroke:none"
             d="m 402.52081,162.81992 c 0.12438,0.64252 0.32531,1.2576 0.625,1.84375 0.29969,0.58615 0.66892,1.12851 1.125,1.65625 0.91216,1.05548 2.13823,2.00288 3.5625,2.8125 1.42427,0.80962 3.05866,1.4838 4.84375,2.03125 1.78509,0.54745 3.72413,0.98102 5.71875,1.25 1.99462,0.26898 4.04089,0.36954 6.09375,0.34375 2.05286,-0.0258 4.10269,-0.19439 6.0625,-0.53125 1.95981,-0.33686 3.84703,-0.83577 5.5625,-1.5 1.71547,-0.66423 3.27391,-1.49209 4.59375,-2.5 -0.82641,0.94619 -1.75953,1.83962 -2.75,2.6875 -0.99047,0.84788 -2.0614,1.64291 -3.1875,2.375 -1.1261,0.73209 -2.29795,1.40118 -3.53125,2 -1.2333,0.59882 -2.53166,1.14567 -3.84375,1.59375 -1.31209,0.44808 -2.63755,0.81389 -4,1.09375 -1.36245,0.27986 -2.74062,0.46834 -4.125,0.5625 -1.38438,0.0942 -2.77836,0.0778 -4.15625,-0.0312 -1.37789,-0.10902 -2.75077,-0.32657 -4.09375,-0.65625 -2.04504,-0.50202 -3.89959,-1.24005 -5.46875,-2.1875 -0.78458,-0.47373 -1.50254,-0.99305 -2.125,-1.5625 -0.62246,-0.56945 -1.16216,-1.18898 -1.59375,-1.84375 -0.43159,-0.65477 -0.7568,-1.33284 -0.96875,-2.0625 -0.21195,-0.72966 -0.31771,-1.51837 -0.28125,-2.3125 0.0365,-0.79413 0.21763,-1.58931 0.53125,-2.4375 0.31362,-0.84819 0.7867,-1.73318 1.40625,-2.625 z"
             id="path5108" />
          <path
             sodipodi:nodetypes="cssccscccscc"
             id="path5110"
             d="m 403.86072,157.47857 c -2.71624,-0.8086 -6.69733,8.07048 -5.85462,12.4326 1.53324,7.93646 12.99148,12.40856 25.58689,9.97526 11.09177,-2.14282 25.93402,-12.0325 19.21468,-14.65461 -1.56306,-0.72512 -7.58304,3.96267 -13.25361,5.05816 -8.34114,1.60114 -17.55782,-1.61474 -22.74412,-5.66484 -3.17701,-2.481 -1.75552,-7.34239 -2.94922,-7.14657 z m -1.35457,5.34029 c 1.99012,10.28034 27.62955,13.47554 38.18827,5.41227 -6.61132,7.56951 -18.92714,12.27276 -29.67096,9.63532 -8.18017,-2.00809 -13.47369,-7.913 -8.51727,-15.04759 l -4e-5,0 z"
             style="fill:#000000;fill-opacity:1;fill-rule:evenodd;stroke:none" />
        </g>
        <g
           id="g5207">
          <g
             transform="translate(356.15282,82.66603)"
             id="g5112">
            <path
               style="fill:#ffffff;fill-opacity:1;fill-rule:evenodd;stroke:none"
               d="m 143.05364,5.42675 c -0.28931,0 -2.01981,-0.81226 -3.84375,-1.8125 -2.25985,-1.2393 -4.6023,-2.21109 -7.3125,-2.96875 -2.7102,-0.75766 -5.80742,-1.31651 -9.53125,-1.75 -1.91519,-0.22295 -3.51298,-0.46939 -4.6875,-0.71875 -1.17452,-0.24937 -1.9149,-0.50375 -2.0625,-0.71875 -0.27803,-0.40501 -0.15295,-1.4346 0.3125,-2.4375 0.34703,-0.74775 0.53412,-1.18819 0.53125,-1.4375 -0.003,-0.24931 -0.17561,-0.3125 -0.53125,-0.3125 -0.45646,0 -1.7351,0.71085 -2.8125,1.5625 -1.0626,0.83995 -1.81803,1.22892 -2.375,1.15625 -0.27848,-0.0363 -0.51489,-0.20158 -0.6875,-0.46875 -0.17261,-0.26718 -0.29458,-0.65645 -0.375,-1.15625 -0.078,-0.48501 -0.23477,-0.84202 -0.40625,-1.09375 -0.17148,-0.25174 -0.37288,-0.39304 -0.5625,-0.40625 -0.18962,-0.0132 -0.36754,0.11319 -0.5,0.34375 -0.13246,0.23055 -0.21875,0.58293 -0.21875,1.0625 0,0.59563 -0.0587,1.03363 -0.1875,1.34375 -0.12881,0.31011 -0.30738,0.47265 -0.59375,0.5 -0.57273,0.0547 -1.49958,-0.44008 -2.875,-1.5 -1.42422,-1.09752 -2.25914,-1.54986 -2.53125,-1.34375 -0.27211,0.20611 0.0121,1.07104 0.875,2.59375 0.51817,0.91441 0.87206,1.62697 1.03125,2.21875 0.15919,0.59177 0.14278,1.04552 -0.125,1.40625 -0.26778,0.36072 -0.76851,0.65373 -1.53125,0.875 -0.76274,0.22126 -1.79931,0.3891 -3.125001,0.5625 -1.65968,0.21707 -3.30961,0.57349 -4.96875,1.09375 -12.22745,3.575656 -21.338927,11.40819 -23.781247,21.9375 0.27457,0.50858 0.42826,1.25844 0.5,2.40625 0.0717,1.14781 0.084,2.70217 0.0937,4.75 0.0165,3.46308 0.0498,5.36729 0.3125,7.000004 0.2627,1.63271 0.73555,2.98225 1.65625,5.34375 0.59359,1.5225 1.1556,3.30054 1.625,5.125 -0.48492,4.81365 0.20255,11.70851 3.32239,10.69027 1.861127,-0.60743 5.922877,-8.30289 7.427607,-9.12777 1.61912,-0.86419 3.46412,-1.7216 5.34375,-2.46875 1.87963,-0.74715 3.77868,-1.37469 5.5,-1.78125 3.30611,-0.78087 7.153481,-1.31224 11.218751,-1.5625 4.06527,-0.25026 8.35659,-0.24259 12.53125,0 4.17466,0.24259 8.24074,0.73982 11.875,1.4375 1.81713,0.34884 3.53355,0.73197 5.09375,1.1875 1.5602,0.45553 2.96546,0.97374 4.1875,1.53125 1.67693,0.76504 3.1435,1.31463 3.25,1.21875 5.2729,-6.921 5.04858,-13.67618 7.06458,-21.12362 0.48407,-2.34149 -0.21131,-5.123044 -0.0333,-6.845134 -0.048,-9.526237 -3.18151,-11.223174 -8.0937,-16.3125 z"
               id="path4635"
               sodipodi:nodetypes="csssssssssssssssssssssssssccsssscscssssssscccc" />
            <path
               style="fill:#ffaaaa;fill-opacity:1;fill-rule:evenodd;stroke:none"
               d="m 89.48867,49.868554 c 2.104,-0.89069 4.2664,-1.58599 6.59375,-2.11551 2.32735,-0.52951 4.81514,-0.8778 7.625,-1.10512 2.80986,-0.22731 5.91721,-0.33166 9.46875,-0.31574 3.99752,0.0179 7.54484,0.16118 10.6875,0.41047 3.14266,0.24928 5.88686,0.62052 8.34375,1.13669 2.45689,0.51617 4.62227,1.17064 6.5625,1.98921 1.94023,0.81857 3.65734,1.77995 5.25,2.93646 1.48216,1.07626 2.48273,1.9081 3.40625,3.03118 0.92352,1.12309 1.76387,2.53836 3,4.7678 1.39889,2.52296 2.15342,3.91392 2.5625,5.27299 0.40908,1.35907 0.48382,2.68858 0.59375,5.17827 0.0908,2.05642 0.0909,3.5821 -0.0625,4.98882 -0.15342,1.40672 -0.4752,2.68928 -0.96875,4.32575 -0.75753,2.51173 -1.64014,4.78779 -2.75,6.85173 -1.10986,2.06394 -2.44721,3.9356 -4,5.65189 -1.55279,1.71628 -3.31993,3.26745 -5.40625,4.73622 -2.08632,1.46877 -4.47705,2.846456 -7.1875,4.167856 -1.65715,0.8079 -3.1958,1.47897 -4.6875,2.05237 -1.4917,0.57339 -2.94696,1.06357 -4.46875,1.45244 -3.04358,0.77775 -6.31898,1.23928 -10.65625,1.57874 -3.93612,0.19101 -8.13649,0.30922 -12.3125,0.15787 -2.088,-0.0757 -4.15781,-0.22415 -6.21875,-0.47362 -2.06094,-0.24947 -4.08664,-0.5915 -6.0625,-1.07354 -1.97586,-0.48205 -3.91725,-1.08947 -5.75,-1.86292 -1.83275,-0.77344 -3.55588,-1.7181 -5.1875,-2.84173 -1.63162,-1.123616 -3.15879,-2.445796 -4.53125,-3.978416 -1.37246,-1.53261 -2.60096,-3.27258 -3.65625,-5.27299 -0.90127,-1.75926 -1.53146,-3.23605 -1.875,-4.54677 -2.76848,-9.17122 -1.23691,-2.56793 -1.25,-7.95685 -0.23356,-0.21247 0.1072,-1.90278 0.6875,-3.85213 0.5803,-1.94934 1.39809,-4.1431 2.03125,-5.27299 0.69409,-1.23861 2.4991,-4.09849 4.03125,-6.34654 l 2.78125,-4.07314 c 3.22114,-3.83414 4.14649,-4.85578 13.40625,-9.59875 z"
               id="path4843"
               sodipodi:nodetypes="cssssssssssssssssssscsssssscccssccc" />
            <path
               id="path4845"
               d="m 66.33571,69.564104 c 3.55394,-4.76708 6.7663,-7.60923 7.27625,-11.52673 -11.706442,-36.124727 -8.39849,-47.53573 23.8365,-59.815911 1.12972,-0.17534 2.26762,-0.49414 2.52866,-0.70843 0.26104,-0.2143 -0.47029,-1.93728 -1.62519,-3.82885 -3.0813,-5.04679 -1.59785,-6.6823 3.49805,-3.8566 1.29112,0.71592 2.64625,1.3091 3.0114,1.31817 0.36515,0.009 0.96316,-1.05342 1.32891,-2.36109 0.50536,-1.80686 0.94146,-2.37759 1.81675,-2.37759 1.27914,0 2.65142,1.61406 3.25674,3.83055 0.38595,1.41323 1.62602,1.94079 2.28965,0.97408 0.49651,-0.72327 5.54156,-2.15308 6.46789,-1.83305 1.34498,0.46465 1.54574,1.78006 0.55776,3.65447 -0.51441,0.97596 -0.78295,1.99639 -0.59675,2.26763 0.1862,0.27124 1.86056,0.66346 3.7208,0.87161 4.09584,0.45828 11.75944,2.57764 15.54031,4.29765 5.93581,3.064197 13.70188,8.676087 14.94435,21.86503 -0.19872,2.57512 -1.37984,8.09735 -2.76864,12.94464 -1.47374,5.143741 -2.4538,9.798281 -2.50312,11.887931 -0.0762,3.22649 0.11906,3.76996 3.22637,8.98199 5.9017,9.89914 7.08524,16.34888 4.60532,25.09675 -3.16886,11.17809 -10.06959,18.50268 -22.37854,23.753026 -7.74707,3.3045 -12.2534,4.07241 -25.69065,4.37781 -12.21582,-0.36954 -24.43666,-0.65874 -36.13048,-9.380186 -9.30487,-9.66132 -9.93276,-19.79317 -6.21234,-30.4329 z m 47.15068,36.753986 c 8.67453,-0.67193 13.19728,-1.81577 19.8259,-5.01413 10.84181,-5.231216 16.32815,-11.232856 19.35828,-21.176456 0.9871,-3.23926 1.19802,-5.15335 1.01642,-9.22389 -0.21986,-4.92816 -0.34738,-5.34744 -3.14515,-10.34147 -2.47226,-4.41299 -3.44806,-5.58744 -6.41237,-7.71783 -6.37065,-4.57845 -14.84544,-6.34059 -30.83552,-6.41155 -14.20614,-0.063 -21.44224,1.56639 -30.00148,6.75577 -2.03934,1.23643 -3.23731,1.68659 -3.39011,1.27389 -0.63338,-1.71068 9.19362,-6.95576 16.07892,-8.582 13.22443,-3.12348 35.12133,-1.85104 44.89764,2.60902 1.67693,0.76504 3.13611,1.31253 3.24261,1.21665 0.1065,-0.0959 -0.0697,-1.2861 -0.39166,-2.64493 -0.3219,-1.35884 -0.48792,-3.25788 -0.36893,-4.22011 l 0.21636,-1.7495 0.95338,1.84924 c 0.62423,1.21078 1.04385,1.57561 1.21542,1.0567 5.57052,-17.175286 10.35444,-29.052997 -6.54142,-40.388351 -4.5197,-2.4786 -9.37683,-3.83645 -16.82448,-4.70344 -3.83038,-0.4459 -6.46567,-1.00541 -6.76087,-1.43541 -0.27803,-0.40501 -0.13935,-1.44676 0.3261,-2.44966 0.69406,-1.4955 0.69119,-1.74498 -0.0201,-1.74498 -0.45646,0 -1.71144,0.6968 -2.78884,1.54845 -2.12521,1.6799 -3.12963,1.54884 -3.45131,-0.45036 -0.31218,-1.94004 -1.67306,-2.03488 -1.67306,-0.11659 0,2.38253 -0.91551,2.46996 -3.66635,0.35012 -2.84843,-2.19503 -3.37551,-1.79579 -1.64978,1.24963 2.07266,3.65764 1.54545,4.36783 -3.75729,5.0614 -13.475357,2.903372 -24.828861,10.274468 -27.904387,21.491301 -0.805924,2.939305 -0.07823,5.135228 -0.268703,8.694109 0.0329,6.926161 0.14654,7.632431 1.98793,12.355431 1.18718,3.045 2.24494,7.1563 2.69744,10.48438 l 0.7444,5.47503 -2.78572,4.04532 c -1.53215,2.22492 -3.35363,5.0483 -4.04772,6.27417 -1.26633,2.23654 -3.18791,8.62515 -2.72079,9.0457 -0.13463,6.07297 1.40692,8.27451 3.13818,12.35964 8.44228,15.838636 27.96258,15.930896 43.70706,15.174706 z M 98.50936,69.082274 c -0.9482,-1.87356 0.0217,-4.91336 1.98657,-6.22613 1.4969,-1.00011 1.65951,-1.0091 3.08107,-0.17053 1.86943,1.10276 2.00485,3.54441 0.33346,6.01236 -1.51557,2.23787 -4.36057,2.4403 -5.4011,0.3843 z m 35.46872,-0.3843 c -1.3529,-1.52242 -1.39224,-3.09361 -0.13595,-5.42999 0.97482,-1.81291 1.59484,-2.36321 2.66267,-2.36321 2.20522,0 3.93867,2.03011 3.56107,4.1705 -0.57087,3.23596 -4.40429,5.51714 -6.08779,3.6227 z M 97.44846,31.845383 c -1.47886,-1.33139 -1.63574,-6.03963 -0.26016,-7.80772 2.84899,-3.66194 6.38675,1.70716 4.33153,6.57378 -1.03922,2.46081 -2.28817,2.83934 -4.07137,1.23394 z m 23.75147,-2.47476 c -2.19422,-3.0149 -1.6269,-8.09229 0.90419,-8.09229 1.53224,0 2.84129,1.92983 3.28472,4.84241 0.64213,4.21771 -1.99531,6.26391 -4.18891,3.24988 z"
               style="fill:#000000"
               sodipodi:nodetypes="cccssssssssssssccsssssccccsssssssssssscccccssssssssscscscccsccccsssccsssccssccssc" />
          </g>
          <g
             transform="translate(-3.6502386,2.1901432)"
             id="g5148">
            <path
               style="fill:#ffdcac;fill-opacity:1;stroke:#000000;stroke-width:3;stroke-linecap:butt;stroke-linejoin:miter;stroke-miterlimit:4;stroke-opacity:1;stroke-dasharray:none"
               d="m 424.88123,59.657612 c 5.18916,-0.933518 2.6547,10.834263 11.46177,17.348325 8.34052,6.16897 18.80098,6.207502 13.83585,11.326715 -6.62043,6.825883 -20.00075,-1.899245 -23.64701,-9.396111 -2.76466,-6.194955 -4.00939,-18.597395 -1.65061,-19.278929 z"
               id="path5117"
               sodipodi:nodetypes="csscc" />
            <path
               style="opacity:0.81761008;fill:none;stroke:#000000;stroke-width:3;stroke-linecap:round;stroke-linejoin:miter;stroke-miterlimit:4;stroke-opacity:1;stroke-dasharray:none;filter:url(#filter5121)"
               d="m 441.17154,89.032292 c 3.5407,-1.639374 3.94469,-2.990103 4.47905,-5.525589"
               id="path5119"
               sodipodi:nodetypes="cc" />
            <path
               sodipodi:nodetypes="cc"
               id="path5140"
               d="m 435.48826,86.879531 c 3.5407,-1.639374 3.94469,-2.990103 4.47905,-5.525589"
               style="opacity:0.81761008;fill:none;stroke:#000000;stroke-width:3;stroke-linecap:round;stroke-linejoin:miter;stroke-miterlimit:4;stroke-opacity:1;stroke-dasharray:none;filter:url(#filter5121)" />
            <path
               style="opacity:0.81761008;fill:none;stroke:#000000;stroke-width:3;stroke-linecap:round;stroke-linejoin:miter;stroke-miterlimit:4;stroke-opacity:1;stroke-dasharray:none;filter:url(#filter5121)"
               d="m 415.72068,63.510438 c 3.5407,-1.639374 3.94469,-2.990103 4.47905,-5.525589"
               id="path5142"
               sodipodi:nodetypes="cc"
               transform="matrix(0.98350079,0.18090385,-0.18090385,0.98350079,33.261447,-54.941981)" />
            <path
               transform="matrix(0.98350079,0.18090385,-0.18090385,0.98350079,29.042035,-60.108608)"
               sodipodi:nodetypes="cc"
               id="path5144"
               d="m 415.72068,63.510438 c 3.5407,-1.639374 3.94469,-2.990103 4.47905,-5.525589"
               style="opacity:0.81761008;fill:none;stroke:#000000;stroke-width:3;stroke-linecap:round;stroke-linejoin:miter;stroke-miterlimit:4;stroke-opacity:1;stroke-dasharray:none;filter:url(#filter5121)" />
            <path
               style="opacity:0.81761008;fill:none;stroke:#000000;stroke-width:3;stroke-linecap:round;stroke-linejoin:miter;stroke-miterlimit:4;stroke-opacity:1;stroke-dasharray:none;filter:url(#filter5121)"
               d="m 416.75056,62.445453 c 0.9309,-1.071775 2.72108,-2.502368 2.65778,-3.527042"
               id="path5146"
               sodipodi:nodetypes="cc"
               transform="matrix(0.98350079,0.18090385,-0.18090385,0.98350079,26.458722,-66.653002)" />
          </g>
          <g
             transform="matrix(-1,0,0,1,932.77404,0.7300474)"
             id="g5193">
            <path
               sodipodi:nodetypes="csscc"
               id="path5195"
               d="m 424.88123,59.657612 c 5.18916,-0.933518 2.6547,10.834263 11.46177,17.348325 8.34052,6.16897 18.80098,6.207502 13.83585,11.326715 -6.62043,6.825883 -20.00075,-1.899245 -23.64701,-9.396111 -2.76466,-6.194955 -4.00939,-18.597395 -1.65061,-19.278929 z"
               style="fill:#ffdcac;fill-opacity:1;stroke:#000000;stroke-width:3;stroke-linecap:butt;stroke-linejoin:miter;stroke-miterlimit:4;stroke-opacity:1;stroke-dasharray:none" />
            <path
               sodipodi:nodetypes="cc"
               id="path5197"
               d="m 441.17154,89.032292 c 3.5407,-1.639374 3.94469,-2.990103 4.47905,-5.525589"
               style="opacity:0.81761008;fill:none;stroke:#000000;stroke-width:3;stroke-linecap:round;stroke-linejoin:miter;stroke-miterlimit:4;stroke-opacity:1;stroke-dasharray:none;filter:url(#filter5121)" />
            <path
               style="opacity:0.81761008;fill:none;stroke:#000000;stroke-width:3;stroke-linecap:round;stroke-linejoin:miter;stroke-miterlimit:4;stroke-opacity:1;stroke-dasharray:none;filter:url(#filter5121)"
               d="m 435.48826,86.879531 c 3.5407,-1.639374 3.94469,-2.990103 4.47905,-5.525589"
               id="path5199"
               sodipodi:nodetypes="cc" />
            <path
               transform="matrix(0.98350079,0.18090385,-0.18090385,0.98350079,33.261447,-54.941981)"
               sodipodi:nodetypes="cc"
               id="path5201"
               d="m 415.72068,63.510438 c 3.5407,-1.639374 3.94469,-2.990103 4.47905,-5.525589"
               style="opacity:0.81761008;fill:none;stroke:#000000;stroke-width:3;stroke-linecap:round;stroke-linejoin:miter;stroke-miterlimit:4;stroke-opacity:1;stroke-dasharray:none;filter:url(#filter5121)" />
            <path
               style="opacity:0.81761008;fill:none;stroke:#000000;stroke-width:3;stroke-linecap:round;stroke-linejoin:miter;stroke-miterlimit:4;stroke-opacity:1;stroke-dasharray:none;filter:url(#filter5121)"
               d="m 415.72068,63.510438 c 3.5407,-1.639374 3.94469,-2.990103 4.47905,-5.525589"
               id="path5203"
               sodipodi:nodetypes="cc"
               transform="matrix(0.98350079,0.18090385,-0.18090385,0.98350079,29.042035,-60.108608)" />
            <path
               transform="matrix(0.98350079,0.18090385,-0.18090385,0.98350079,26.458722,-66.653002)"
               sodipodi:nodetypes="cc"
               id="path5205"
               d="m 416.75056,62.445453 c 0.9309,-1.071775 2.72108,-2.502368 2.65778,-3.527042"
               style="opacity:0.81761008;fill:none;stroke:#000000;stroke-width:3;stroke-linecap:round;stroke-linejoin:miter;stroke-miterlimit:4;stroke-opacity:1;stroke-dasharray:none;filter:url(#filter5121)" />
          </g>
        </g>
        <g
           id="g4933"
           transform="translate(279.08018,122.63218)">
          <path
             sodipodi:nodetypes="cssssccsssssssssssscc"
             id="path4841"
             d="m 248.80322,-40.029276 c -2.59752,-0.0013 -5.26815,0.343585 -7.96444,1.057713 -2.69631,0.714116 -5.40709,0.566762 -8.06527,1.926909 -2.65819,1.360133 -5.27966,3.027009 -7.76282,4.96311 -2.48317,1.936089 -5.33532,3.803912 -7.50656,6.24592 -1.37208,1.543204 -3.0914,3.151448 -3.40253,3.151448 -5.19676,3.605482 -7.51149,13.3380209 9.83366,12.611182 0.26801,-0.349168 0.68723,-0.60781 1.2434,-0.813627 0.55617,-0.205813 1.25141,-0.354048 2.15073,-0.488174 2.26972,-0.338506 5.99907,-1.508408 9.87996,-3.010411 3.88089,-1.502004 7.92568,-3.328674 10.75369,-4.96311 3.21986,-1.860924 5.79466,-3.595702 7.86363,-5.288561 2.06896,-1.692874 3.61104,-3.34845 4.73834,-5.044473 0.59714,-0.898385 1.06603,-1.755254 1.37782,-2.562916 0.31178,-0.807679 0.47142,-1.567331 0.50408,-2.27815 0.0327,-0.710834 -0.0622,-1.34485 -0.30244,-1.9527 -0.24025,-0.607862 -0.60207,0.03637 -1.10898,-0.462385 -0.50692,-0.498759 -1.14813,-0.958944 -1.9155,-1.342481 -0.76737,-0.38355 -1.66683,-0.714154 -2.68842,-0.976349 -2.04319,-0.524391 -4.60567,-0.770691 -7.6284,-0.772945 l 5e-5,0 z"
             style="fill:#ffffff;fill-opacity:1;fill-rule:evenodd;stroke:none" />
          <path
             id="path4849"
             d="m 245.13872,-31.071831 c 1.78011,-0.0458 3.24985,0.18024 3.375,0.5 0.12151,0.31045 -0.38315,1.37778 -1.125,2.375 -0.39148,0.52625 -1.08321,1.10447 -2,1.71875 -0.91679,0.61429 -2.07009,1.25471 -3.34375,1.875 -2.54733,1.2406 -5.6295,2.41503 -8.59375,3.1875 -2.88247,0.75116 -5.08236,1.22619 -6.5625,1.375 -0.74007,0.0744 -1.3126,0.0464 -1.6875,-0.0312 -0.3749,-0.0777 -0.5625,-0.20681 -0.5625,-0.4375 0,-0.33386 0.33635,-0.83249 0.9375,-1.40625 0.60115,-0.57375 1.4769,-1.22396 2.53125,-1.9375 2.10869,-1.42706 4.96619,-3.05209 8,-4.4375 2.35315,-1.07458 3.98681,-1.73994 5.34375,-2.15625 1.35694,-0.41631 2.43279,-0.5927 3.6875,-0.625 z"
             style="fill:#ffaaaa;fill-opacity:1;fill-rule:evenodd;stroke:none" />
          <path
             sodipodi:nodetypes="cssssccssscccssssccsssssc"
             style="fill:#000000"
             d="m 226.59657,-13.607105 c 4.22129,-0.52006 15.49952,-4.715667 20.75912,-7.226707 5.98841,-2.85899 9.64177,-5.32829 11.73835,-7.93395 4.44226,-5.5209 0.3006,-8.88709 -10.94294,-8.89402 -9.66186,-0.006 -20.56786,4.60377 -28.64411,12.10723 -1.27592,1.18544 -2.55657,2.15534 -2.84589,2.15534 -3.43376,-0.878977 0.29047,-3.710189 2.55644,-5.58765 10.32863,-9.64804 26.04336,-13.99234 37.841,-10.46107 3.31299,0.99165 4.73282,1.95302 5.90929,4.00122 2.02542,3.52618 -0.0256,8.30356 -5.17243,12.04759 -5.50553,4.00502 -22.61505,10.967054 -29.82079,12.178834 -2.33121,1.356877 -3.99482,-1.447851 -1.37804,-2.386817 z m -3.44925,-4.550907 c -3.40863,-1.78738 2.94683,-7.84186 12.76252,-12.1581 7.35781,-3.23545 12.17406,-3.97882 13.99534,-2.16013 1.44211,1.44006 0.8574,3.80055 -1.55385,6.27298 -3.25562,3.33824 -9.56395,6.1631 -17.42799,7.80423 -4.44581,0.92779 -6.35356,0.98693 -7.77602,0.24102 z m 10.1235,-3.17292 c 5.9285,-1.54495 12.37058,-4.68237 13.93652,-6.78736 0.74185,-0.99722 1.2494,-2.06713 1.12789,-2.37758 -0.12515,-0.31976 -1.58315,-0.52938 -3.36326,-0.48355 -2.50941,0.0646 -4.32933,0.62296 -9.03562,2.77212 -6.06761,2.77082 -11.46858,6.42593 -11.46858,7.76138 0,0.92275 3.0381,0.61731 8.80305,-0.88501 z"
             id="path4639" />
        </g>
        <g
           id="g4928"
           transform="translate(352.24653,91.379516)">
          <path
             style="fill:#ffffff;fill-opacity:1;fill-rule:evenodd;stroke:none"
             d="m 81.044686,7.1933507 c -0.33394,0 -3.241172,-1.826861 -6.461874,-4.052702 -3.482686,-2.40690501 -7.067217,-4.540236 -10.508704,-6.2816873 -3.441487,-1.7414622 -6.745966,-3.1048343 -9.69281,-3.9513842 -1.729297,-0.4967856 -3.489057,-0.8387904 -5.156445,-1.046948 -1.667388,-0.2081684 -3.236085,-0.2743409 -4.666909,-0.202635 -1.430823,0.071652 -2.70087,0.265079 -3.720472,0.6079051 -1.019603,0.3428154 -1.785493,0.8470256 -2.21923,1.4522182 -0.404328,0.5641469 -0.531926,1.5555458 -0.391628,2.7355737 0.140296,1.1800279 0.5186,2.5356728 1.14225,3.81629349 0.413612,0.84931701 1.166897,1.87564401 2.121322,2.97198201 0.954425,1.096336 2.135943,2.276191 3.36148,3.377251 1.225537,1.10106 2.493516,2.14228 3.720473,3.005754 1.226957,0.8634733 2.402793,1.5414423 3.361479,1.9250333 2.389228,0.955984 6.784284,2.303793 10.867697,3.411024 4.083413,1.107231 7.852323,1.978659 9.040096,1.992579 1.151535,0.01351 2.030516,-0.0055 2.676129,0.135089 -1.568907,0.308139 16.493859,3.83149 6.527146,-9.8953463 z"
             id="path4926"
             sodipodi:nodetypes="cssssssssssssssscc" />
          <path
             id="path4847"
             d="m 54.481574,0.80786769 c 1.26798,-0.0242 3.02312,0.25616001 4.9375,0.81250001 1.65971,0.48233 3.59669,1.23617 5.53125,2.125 1.93456,0.88883 3.86898,1.91338 5.5625,2.90625 1.69352,0.99287 3.12592,1.95554 4.0625,2.75 0.46829,0.39723 0.81767,0.7403403 1,1.0312503 0.18233,0.29091 0.19937,0.54071 0.0312,0.6875 -0.47108,0.41132 -1.1867,0.66619 -1.9375,0.78125 -0.7508,0.11506 -1.52242,0.0858 -2.15625,-0.15625 -0.64556,-0.24647 -3.68425,-1.12149 -6.75,-1.9375003 -2.55367,-0.67971 -4.0376,-1.10989 -5.25,-1.71875 -1.2124,-0.60886 -2.17224,-1.40186 -3.71875,-2.78125 -1.85662,-1.656 -3.375,-3.25779 -3.375,-3.5625 0,-0.2964 0.20666,-0.53252 0.5625,-0.6875 0.35584,-0.15498001 0.86601,-0.23792001 1.5,-0.25000001 z"
             style="fill:#e9afaf;fill-opacity:1;fill-rule:evenodd;stroke:none" />
          <path
             id="path4924"
             d="m 73.720591,18.762119 -4.38701,-0.65901 c -10.68107,-1.6045 -20.844249,-5.62053 -25.745039,-10.1732903 -4.0417,-3.75467 -5.91941,-6.68313 -6.33447,-9.8791696 -0.27141,-2.0899 -0.10785,-2.81999 0.88487,-3.94975 1.7726,-2.0173 4.77076,-3.10505 8.55847,-3.10505 8.08432,0 16.758759,3.21198 26.914889,9.96606959 0.42626,0.42186001 11.14651,5.52947001 6.855,6.41286001 -0.31976,0 -3.10462,-1.68513 -6.18857,-3.74472 -6.66962,-4.45424961 -13.69454,-7.8893296 -19.33798,-9.4559796 -6.623499,-1.83871 -13.441629,-1.50851 -15.102919,0.73142 -0.77432,1.04402 -0.44697,3.70461 0.74738,6.07453959 1.58419,3.14350001 8.34417,9.01239001 12.01608,10.43215031 4.575549,1.76916 16.790569,4.9698 19.065249,4.99557 4.66911,0.30665 5.50295,1.07354 2.05405,2.35436 z m -9.40148,-7.05589 C 57.118941,9.2147687 52.669112,6.5147387 50.460232,3.2970687 c -1.36315,-1.9857 -1.04569,-3.62269961 0.8051,-4.15153961 2.23314,-0.63809999 6.721369,-0.27085999 9.930799,0.8125496 7.22986,2.44061001 16.33911,8.34035001 16.33911,10.58229031 0,2.91706 -6.49858,3.49033 -13.21613,1.16586 z m 11.16209,-0.73582 c 1.34496,-1.1743503 -9.55624,-7.5654703 -16.19509,-9.4947903 -3.82875,-1.11268001 -6.986279,-1.05253001 -6.986279,0.13308 0,0.30471 1.51906,1.90893 3.375679,3.56493 3.09301,2.75878 3.84244,3.13514 8.94977,4.49455 3.06575,0.8160103 6.10227,1.6853103 6.74783,1.9317803 1.26766,0.48399 3.16593,0.19309 4.10809,-0.62955 z"
             style="fill:#000000"
             sodipodi:nodetypes="ccssssccssssscccssssccsssssc" />
        </g>
      </g>
    </g>
  </g>
</svg>
